<svg xmlns="http://www.w3.org/2000/svg" width="100%" height="100%" viewBox="0 0 500 500"><g id="kitten-left"><polygon fill="#E5E7EB" points="125 200 120 150 150 180"/><polygon fill="#E5E7EB" points="199 200 204 150 174 180"/><rect width="84" height="100" x="120" y="170" fill="#E5E7EB" rx="42"/><circle cx="145" cy="210" r="4" fill="#1F2937"/><circle cx="179" cy="210" r="4" fill="#1F2937"/><polygon fill="#1F2937" points="158 220 166 220 162 225"/></g><g id="kitten-right"><polygon fill="#374151" points="301 200 296 150 326 180"/><polygon fill="#374151" points="375 200 380 150 350 180"/><rect width="84" height="100" x="296" y="170" fill="#374151" rx="42"/><circle cx="321" cy="210" r="4" fill="#F9FAFB"/><circle cx="355" cy="210" r="4" fill="#F9FAFB"/><polygon fill="#F9FAFB" points="334 220 342 220 338 225"/></g><g id="kitten-center"><polygon fill="#F59E0B" points="205 160 200 105 240 140"/><polygon fill="#F59E0B" points="295 160 300 105 260 140"/><rect width="110" height="150" x="195" y="130" fill="#F59E0B" rx="55"/><path fill="none" stroke="#1F2937" stroke-linecap="round" stroke-width="3" d="M 222 185 Q 230 176 238 185"/><path fill="none" stroke="#1F2937" stroke-linecap="round" stroke-width="3" d="M 262 185 Q 270 176 278 185"/><polygon fill="#1F2937" points="246 198 254 198 250 204"/></g><g id="cardboard-box"><path fill="#D98A53" d="M 100 256 L 400 256 L 385 360 C 383 366 378 370 372 370 L 128 370 C 122 370 117 366 115 360 Z"/><rect width="60" height="16" x="220" y="285" fill="#B06535" opacity=".8" rx="8"/><polygon fill="#B06535" points="100 256 400 256 397 268 103 268" opacity=".4"/><rect width="320" height="16" x="90" y="240" fill="#C27A45" rx="8"/></g><g id="paws"><rect width="18" height="28" x="135" y="234" fill="#FFF" rx="9"/><rect width="18" height="28" x="165" y="234" fill="#FFF" rx="9"/><rect width="20" height="30" x="225" y="230" fill="#FFF" rx="10"/><rect width="20" height="30" x="255" y="230" fill="#FFF" rx="10"/><rect width="18" height="28" x="317" y="234" fill="#4B5563" rx="9"/><rect width="18" height="28" x="347" y="234" fill="#4B5563" rx="9"/></g></svg>